<?xml version="1.0" encoding="UTF-8"?>
<svg version="1.1" xmlns="http://www.w3.org/2000/svg" viewBox="159 82 709 703"
  xmlns:xlink="http://www.w3.org/1999/xlink">

  <path
    d="M0 0 C1.84905945 -0.01475876 1.84905945 -0.01475876 3.73547363 -0.02981567 C7.70386832 -0.05498698 11.67216409 -0.06875893 15.640625 -0.07421875 C16.31614914 -0.07522205 16.99167328 -0.07622536 17.68766785 -0.07725906 C38.02324554 -0.09579042 57.86170711 0.26962472 77.890625 4.23828125 C79.18629395 4.48497559 80.48196289 4.73166992 81.81689453 4.98583984 C125.11931541 13.30726464 167.55895927 28.47731291 204.890625 52.23828125 C205.50196289 52.62516113 206.11330078 53.01204102 206.74316406 53.41064453 C223.43541724 64.05671061 239.22063451 75.94850958 253.890625 89.23828125 C254.74479004 90.00785156 254.74479004 90.00785156 255.61621094 90.79296875 C265.90846912 100.0884409 275.92309624 109.64029271 284.890625 120.23828125 C285.67566406 121.13417969 286.46070313 122.03007812 287.26953125 122.953125 C347.61893793 192.25108556 375.61962935 284.99354851 369.3515625 376.171875 C368.18589907 392.02842367 366.30956427 407.69713277 362.890625 423.23828125 C362.68598633 424.19895508 362.48134766 425.15962891 362.27050781 426.14941406 C356.88430203 451.16427409 348.75246991 475.07807765 337.890625 498.23828125 C337.46555664 499.14884277 337.04048828 500.0594043 336.60253906 500.99755859 C322.0724223 531.81255791 302.89693074 560.00673323 279.85546875 585.08984375 C278.05066056 587.06329207 276.31111035 589.07691957 274.578125 591.11328125 C271.50007155 594.64230532 268.25449695 597.98239989 264.953125 601.30078125 C264.23612427 602.02467041 264.23612427 602.02467041 263.50463867 602.76318359 C235.86176789 630.29000538 202.603349 650.90603967 167.890625 668.23828125 C167.20919434 668.58294434 166.52776367 668.92760742 165.82568359 669.28271484 C149.60671119 677.4411431 132.32199471 683.37913772 114.953125 688.55078125 C113.3757959 689.02052368 113.3757959 689.02052368 111.76660156 689.49975586 C97.83303941 693.53979846 83.68485947 696.86282187 69.328125 698.98828125 C68.60115417 699.09600861 67.87418335 699.20373596 67.12518311 699.31472778 C51.46479329 701.53586363 35.81009702 701.69823271 20.015625 701.67578125 C18.83241669 701.67582153 17.64920837 701.67586182 16.43014526 701.67590332 C-2.71833384 701.63803389 -21.83212972 700.81878452 -40.734375 697.55078125 C-41.70979248 697.38344482 -42.68520996 697.2161084 -43.69018555 697.04370117 C-94.71070015 687.88761766 -143.56214304 667.83380761 -186.109375 638.23828125 C-187.72972656 637.12259766 -187.72972656 637.12259766 -189.3828125 635.984375 C-202.9877886 626.51433916 -215.59643809 615.96275414 -227.6484375 604.59765625 C-229.88644177 602.51523517 -232.18903954 600.50707027 -234.484375 598.48828125 C-238.00901708 595.32572118 -241.1764971 592.05490183 -244.22265625 588.43359375 C-246.47863927 585.80861972 -248.85825061 583.31748443 -251.234375 580.80078125 C-298.97609784 529.13541923 -326.10209549 460.22560815 -335.109375 391.23828125 C-335.22941895 390.32626953 -335.34946289 389.41425781 -335.47314453 388.47460938 C-346.74134642 298.12747651 -319.56024535 205.42105661 -263.98046875 133.8515625 C-263.02633655 132.64483753 -262.06937549 131.44034301 -261.109375 130.23828125 C-260.66223145 129.67544434 -260.21508789 129.11260742 -259.75439453 128.53271484 C-252.12773368 119.06031991 -243.55018322 110.4756083 -234.984375 101.86328125 C-234.43142761 101.3049762 -233.87848022 100.74667114 -233.30877686 100.17144775 C-226.24278895 93.05361765 -218.98951247 86.46420958 -211.109375 80.23828125 C-209.9004867 79.23818142 -208.69432734 78.23476406 -207.4921875 77.2265625 C-191.59736455 64.08905382 -174.12545104 53.20704983 -156.109375 43.23828125 C-155.36574707 42.82126953 -154.62211914 42.40425781 -153.85595703 41.97460938 C-118.87065374 22.44438564 -80.67557961 10.50643713 -41.296875 3.92578125 C-40.13588791 3.73165146 -40.13588791 3.73165146 -38.95144653 3.53359985 C-25.91991005 1.3756269 -13.22435564 0.08665408 0 0 Z "
    fill="#FDFEFE" transform="translate(497.109375,82.76171875)" />
  <path
    d="M0 0 C1.84905945 -0.01475876 1.84905945 -0.01475876 3.73547363 -0.02981567 C7.70386832 -0.05498698 11.67216409 -0.06875893 15.640625 -0.07421875 C16.31614914 -0.07522205 16.99167328 -0.07622536 17.68766785 -0.07725906 C38.02324554 -0.09579042 57.86170711 0.26962472 77.890625 4.23828125 C79.18629395 4.48497559 80.48196289 4.73166992 81.81689453 4.98583984 C125.11931541 13.30726464 167.55895927 28.47731291 204.890625 52.23828125 C205.50196289 52.62516113 206.11330078 53.01204102 206.74316406 53.41064453 C223.43541724 64.05671061 239.22063451 75.94850958 253.890625 89.23828125 C254.74479004 90.00785156 254.74479004 90.00785156 255.61621094 90.79296875 C265.90846912 100.0884409 275.92309624 109.64029271 284.890625 120.23828125 C285.67566406 121.13417969 286.46070313 122.03007812 287.26953125 122.953125 C347.61893793 192.25108556 375.61962935 284.99354851 369.3515625 376.171875 C368.18589907 392.02842367 366.30956427 407.69713277 362.890625 423.23828125 C362.68598633 424.19895508 362.48134766 425.15962891 362.27050781 426.14941406 C356.88430203 451.16427409 348.75246991 475.07807765 337.890625 498.23828125 C337.46555664 499.14884277 337.04048828 500.0594043 336.60253906 500.99755859 C322.0724223 531.81255791 302.89693074 560.00673323 279.85546875 585.08984375 C278.05066056 587.06329207 276.31111035 589.07691957 274.578125 591.11328125 C271.50007155 594.64230532 268.25449695 597.98239989 264.953125 601.30078125 C264.23612427 602.02467041 264.23612427 602.02467041 263.50463867 602.76318359 C235.86176789 630.29000538 202.603349 650.90603967 167.890625 668.23828125 C167.20919434 668.58294434 166.52776367 668.92760742 165.82568359 669.28271484 C149.60671119 677.4411431 132.32199471 683.37913772 114.953125 688.55078125 C113.3757959 689.02052368 113.3757959 689.02052368 111.76660156 689.49975586 C97.83303941 693.53979846 83.68485947 696.86282187 69.328125 698.98828125 C68.60115417 699.09600861 67.87418335 699.20373596 67.12518311 699.31472778 C51.46479329 701.53586363 35.81009702 701.69823271 20.015625 701.67578125 C18.83241669 701.67582153 17.64920837 701.67586182 16.43014526 701.67590332 C-2.71833384 701.63803389 -21.83212972 700.81878452 -40.734375 697.55078125 C-41.70979248 697.38344482 -42.68520996 697.2161084 -43.69018555 697.04370117 C-94.71070015 687.88761766 -143.56214304 667.83380761 -186.109375 638.23828125 C-187.72972656 637.12259766 -187.72972656 637.12259766 -189.3828125 635.984375 C-202.9877886 626.51433916 -215.59643809 615.96275414 -227.6484375 604.59765625 C-229.88644177 602.51523517 -232.18903954 600.50707027 -234.484375 598.48828125 C-238.00901708 595.32572118 -241.1764971 592.05490183 -244.22265625 588.43359375 C-246.47863927 585.80861972 -248.85825061 583.31748443 -251.234375 580.80078125 C-298.97609784 529.13541923 -326.10209549 460.22560815 -335.109375 391.23828125 C-335.22941895 390.32626953 -335.34946289 389.41425781 -335.47314453 388.47460938 C-346.74134642 298.12747651 -319.56024535 205.42105661 -263.98046875 133.8515625 C-263.02633655 132.64483753 -262.06937549 131.44034301 -261.109375 130.23828125 C-260.66223145 129.67544434 -260.21508789 129.11260742 -259.75439453 128.53271484 C-252.12773368 119.06031991 -243.55018322 110.4756083 -234.984375 101.86328125 C-234.43142761 101.3049762 -233.87848022 100.74667114 -233.30877686 100.17144775 C-226.24278895 93.05361765 -218.98951247 86.46420958 -211.109375 80.23828125 C-209.9004867 79.23818142 -208.69432734 78.23476406 -207.4921875 77.2265625 C-191.59736455 64.08905382 -174.12545104 53.20704983 -156.109375 43.23828125 C-155.36574707 42.82126953 -154.62211914 42.40425781 -153.85595703 41.97460938 C-118.87065374 22.44438564 -80.67557961 10.50643713 -41.296875 3.92578125 C-40.13588791 3.73165146 -40.13588791 3.73165146 -38.95144653 3.53359985 C-25.91991005 1.3756269 -13.22435564 0.08665408 0 0 Z M-194.43554688 95.87304688 C-195.51609657 96.75438204 -196.60048171 97.63104521 -197.68945312 98.50195312 C-206.46394362 105.54131284 -214.45492985 113.37563619 -222.421875 121.30078125 C-222.93393494 121.80757416 -223.44599487 122.31436707 -223.97357178 122.83651733 C-230.82186464 129.63029738 -237.13984903 136.64344391 -243.109375 144.23828125 C-243.95399292 145.29390259 -243.95399292 145.29390259 -244.81567383 146.37084961 C-258.95143777 164.11414373 -270.7075445 183.09715722 -281.109375 203.23828125 C-281.48400879 203.96015625 -281.85864258 204.68203125 -282.24462891 205.42578125 C-297.05743564 234.34238191 -305.94335728 266.28173218 -311.109375 298.23828125 C-311.27453613 299.22763672 -311.43969727 300.21699219 -311.60986328 301.23632812 C-316.79556255 333.69119056 -316.06430935 368.79568465 -311.109375 401.23828125 C-311.00254395 402.0080127 -310.89571289 402.77774414 -310.78564453 403.57080078 C-310.09927293 408.5106476 -309.18313858 413.36852272 -308.109375 418.23828125 C-307.8932959 419.22135254 -307.6772168 420.20442383 -307.45458984 421.21728516 C-297.02395451 467.6146789 -277.22546987 513.11497618 -247.109375 550.23828125 C-246.34882813 551.19089844 -245.58828125 552.14351562 -244.8046875 553.125 C-240.44095817 558.53813828 -235.9105284 563.76456801 -231.2265625 568.90234375 C-229.31857297 571.00746873 -227.45890431 573.14441759 -225.609375 575.30078125 C-172.84860655 635.73805874 -87.64066575 672.86039594 -8.75366211 679.04638672 C-0.60859414 679.47527554 7.54875042 679.43601346 15.703125 679.42578125 C16.66348663 679.42484467 17.62384827 679.42390808 18.61331177 679.42294312 C99.67634925 679.25142673 178.51619697 649.10686342 238.5625 594.34765625 C240.62215533 592.48152558 242.71451395 590.66758337 244.828125 588.86328125 C300.21190476 540.5426151 336.30422013 465.599169 344.890625 393.23828125 C344.99358887 392.44035156 345.09655273 391.64242188 345.20263672 390.8203125 C348.94192829 361.09501206 348.2923952 329.83164795 343.890625 300.23828125 C343.75140625 299.2548877 343.6121875 298.27149414 343.46875 297.25830078 C335.43939016 241.63825608 311.62629094 187.6274795 275.890625 144.23828125 C275.26679932 143.46436035 275.26679932 143.46436035 274.63037109 142.67480469 C267.49546848 133.86621786 259.63073982 125.75595501 251.65917969 117.71029663 C250.54281703 116.58349004 249.42863025 115.45452253 248.31689453 114.32315063 C240.8281932 106.72017109 233.01115584 99.90507124 224.50090027 93.4670105 C221.82980576 91.4288174 219.20898123 89.32806102 216.578125 87.23828125 C168.40910942 49.91955716 108.1318617 28.97861323 47.890625 23.23828125 C46.88789551 23.14184326 45.88516602 23.04540527 44.85205078 22.94604492 C35.94804818 22.17175385 27.07080128 22.03656258 18.140625 22.05078125 C17.37473053 22.05171783 16.60883606 22.05265442 15.81973267 22.05361938 C-60.32970224 22.25405161 -135.24017761 47.58740437 -194.43554688 95.87304688 Z "
    fill="#156429" transform="translate(497.109375,82.76171875)" />
  <path
    d="M0 0 C3.07698719 2.36651137 5.73576545 4.68113142 8.1875 7.6875 C29.76979213 32.66064057 62.23508907 48.86181062 91.375 63.125 C108.65225652 71.62074142 124.60932435 81.82490536 138.74609375 94.95703125 C140.31303137 96.37732306 141.9330861 97.74027645 143.58984375 99.0546875 C165.04512709 116.37191782 178.31340414 147.60521196 181.55859375 174.3359375 C185.62041844 213.17841175 172.25971829 251.00201751 156.06982422 285.68212891 C154.30168597 289.51296061 152.61929156 293.38066387 150.9375 297.25 C150.63827637 297.93650635 150.33905273 298.6230127 150.03076172 299.33032227 C149.35281511 300.8864349 148.67623304 302.44314194 148 304 C147.02983088 301.08949265 146.89337271 299.33105556 146.93408203 296.31103516 C146.94384064 295.35798492 146.95359924 294.40493469 146.96365356 293.42300415 C146.98551224 291.87170303 146.98551224 291.87170303 147.0078125 290.2890625 C147.02536977 288.0703174 147.04227394 285.85156705 147.05859375 283.6328125 C147.0891763 280.15805182 147.12420479 276.68356125 147.17138672 273.20898438 C147.85354471 220.13862528 129.91542982 172.44076309 93 134 C92.45827148 133.43104004 91.91654297 132.86208008 91.35839844 132.27587891 C76.82509325 117.08272348 60.30943032 105.27813974 42 95 C42.92039062 95.84820312 43.84078125 96.69640625 44.7890625 97.5703125 C57.24741876 109.09470677 69.57764548 120.55611885 80 134 C80.77472656 134.95777344 81.54945313 135.91554688 82.34765625 136.90234375 C113.02287542 175.45297576 128.48686087 221.87960998 128.3125 270.9375 C128.30867813 272.15382111 128.30867813 272.15382111 128.30477905 273.39471436 C128.25474961 282.63785833 127.9606447 291.79880736 127 301 C121.2418887 299.40052464 116.41030158 296.54914003 111.25 293.625 C102.86558458 288.95609827 94.36030262 284.72226929 85.625 280.75 C83.96658081 279.99541504 83.96658081 279.99541504 82.2746582 279.22558594 C80.1433199 278.25663633 78.01189467 277.28787791 75.88037109 276.31933594 C31.86608578 256.15886825 -7.90408167 226.08502331 -25.64013672 179.49389648 C-37.14487105 147.29975122 -40.21991374 110.56213523 -33 77 C-32.80664062 76.09314453 -32.61328125 75.18628906 -32.4140625 74.25195312 C-26.47309059 47.3892252 -14.90638585 22.97049622 0 0 Z "
    fill="#15652B" transform="translate(336,190)" />
  <path
    d="M0 0 C62.34259137 -0.43758936 62.34259137 -0.43758936 87 2 C87.65695862 2.06316406 88.31391724 2.12632812 88.99078369 2.19140625 C100.02135154 3.25286954 111.0153898 4.53914409 122 6 C123.1047467 6.14601654 123.1047467 6.14601654 124.23181152 6.29498291 C202.73409004 16.76955144 282.99793898 44.6897562 345 95 C345.92296875 95.7321875 346.8459375 96.464375 347.796875 97.21875 C354.24986101 102.39572183 360.36530427 107.89652155 366.41455078 113.53222656 C368.06680046 115.06184237 369.73279377 116.57523422 371.40234375 118.0859375 C376.55985938 122.76595989 381.61776644 127.41773955 386.0859375 132.77734375 C387.63389247 134.57486697 389.21212083 136.29187133 390.8515625 138.00390625 C398.68887445 146.20310566 405.7081019 154.79148217 412.45214844 163.90820312 C413.94067392 165.91982558 415.44157499 167.92161084 416.9453125 169.921875 C421.55724373 176.09173039 425.99355645 182.35004468 430.1875 188.8125 C430.57454102 189.40571045 430.96158203 189.9989209 431.36035156 190.61010742 C434 194.75177188 434 194.75177188 434 197 C422.06578798 203.22468463 410.10566822 209.21500641 397.5625 214.125 C396.6355835 214.49036865 395.70866699 214.8557373 394.75366211 215.23217773 C389.22145363 217.34363479 383.80996914 218.85337333 378 220 C377.51140503 219.27018921 377.51140503 219.27018921 377.01293945 218.52563477 C369.07157431 206.7001622 360.91065266 195.11830894 352 184 C351.52224121 183.40364746 351.04448242 182.80729492 350.55224609 182.19287109 C343.21259877 173.15186365 335.07725573 164.87579631 326.875 156.625 C326.36979828 156.11444061 325.86459656 155.60388123 325.34408569 155.07785034 C318.57839076 148.25777387 311.55108025 141.95354173 304 136 C303.27055176 135.4112207 302.54110352 134.82244141 301.78955078 134.21582031 C249.94869268 92.37503306 188.38928158 65.78053297 123 54 C122.03932617 53.8237207 121.07865234 53.64744141 120.08886719 53.46582031 C106.25228546 50.96330994 92.35201245 49.28423738 78.375 47.8125 C77.57220612 47.72773407 76.76941223 47.64296814 75.94229126 47.55563354 C59.83124951 45.8702158 43.75307276 44.87634172 27.5625 44.4375 C26.04100819 44.39414016 24.51952374 44.35052154 22.99804688 44.30664062 C19.3321107 44.20145978 15.66608915 44.09972481 12 44 C0 7.77729258 0 7.77729258 0 0 Z "
    fill="#15642A" transform="translate(224,494)" />
  <path
    d="M0 0 C1.58309877 72.27860701 -22.79682886 139.38550363 -71.9765625 192.79296875 C-73.74448863 194.72130517 -75.43846046 196.68847978 -77.125 198.6875 C-86.18758187 209.05677972 -96.13728608 218.54937416 -107 227 C-108.70844143 228.39570102 -110.41677642 229.79153235 -112.125 231.1875 C-116.57297454 234.744454 -121.19983899 237.93902776 -126 241 C-129.92973151 237.46693153 -132.53488893 233.33929448 -135.375 228.9375 C-145.28877687 213.85104975 -155.92661245 199.43022181 -168 186 C-168.49693359 185.44666992 -168.99386719 184.89333984 -169.50585938 184.32324219 C-174.2190293 179.09485511 -178.99441365 173.95185912 -184 169 C-181.98896699 163.71450336 -179.2500391 159.04287425 -176.375 154.1875 C-175.80813477 153.2298877 -175.24126953 152.27227539 -174.65722656 151.28564453 C-165.30886583 135.67049466 -155.29032791 120.29039476 -144 106 C-143.37480469 105.195625 -142.74960937 104.39125 -142.10546875 103.5625 C-140.10096953 101.01503052 -138.05964921 98.50309681 -136 96 C-135.58975586 95.49807129 -135.17951172 94.99614258 -134.75683594 94.47900391 C-128.60209019 86.9859746 -122.10341054 79.92339979 -115.25 73.0625 C-114.20501343 72.01630493 -114.20501343 72.01630493 -113.13891602 70.94897461 C-108.58187541 66.44052229 -103.86197973 62.17575629 -99 58 C-98.02417969 57.14277344 -97.04835938 56.28554688 -96.04296875 55.40234375 C-73.67282444 36.0924107 -31.5980292 0 0 0 Z "
    fill="#15652B" transform="translate(806,436)" />
  <path
    d="M0 0 C76.23568925 -2.12098151 161.50045202 17.51162863 226 59 C226.7027002 59.44875488 227.40540039 59.89750977 228.12939453 60.35986328 C244.7311496 71.02693857 260.76962628 82.54783707 275.515625 95.67871094 C276.87757656 96.89102703 278.2507608 98.0906932 279.625 99.2890625 C289.41588321 107.91884738 298.72770041 117.02861855 306.83203125 127.2734375 C309.11200022 130.14085793 311.48886085 132.90804121 313.875 135.6875 C317.89266049 140.49479502 321.56268008 145.47192595 325.125 150.625 C325.61081543 151.32455811 326.09663086 152.02411621 326.59716797 152.74487305 C330 157.74682661 330 157.74682661 330 160 C315.44077375 163.38699412 300.89176532 164.90607992 286 166 C284.69240723 166.10103027 283.38481445 166.20206055 282.03759766 166.30615234 C278.2538741 166.56668969 274.47746606 166.73666346 270.6875 166.875 C269.54458496 166.95580811 268.40166992 167.03661621 267.22412109 167.11987305 C262.41559816 167.20769831 259.29424664 167.14100826 255.59570312 163.88037109 C254.08343398 162.00474285 252.63215918 160.07874112 251.23657227 158.11474609 C247.44394043 152.83296496 242.73145849 148.44291072 238.125 143.875 C237.20847656 142.95074219 236.29195312 142.02648437 235.34765625 141.07421875 C229.20930217 134.95313149 222.80089834 129.37070742 216 124 C215.40300293 123.51805176 214.80600586 123.03610352 214.19091797 122.53955078 C175.53991405 91.35649527 128.85929803 71.73955885 81 60 C79.29166992 59.57460938 79.29166992 59.57460938 77.54882812 59.140625 C74.26530879 58.32789167 70.9779755 57.5340625 67.6875 56.75 C66.11210449 56.36908203 66.11210449 56.36908203 64.50488281 55.98046875 C59.08812582 54.72877452 53.82579268 53.82421063 48.28125 53.375 C31.22421165 51.87736376 31.22421165 51.87736376 25.93359375 46.41796875 C22.96680945 42.70676232 20.60538113 38.72842291 18.36767578 34.54492188 C16.99288264 31.98675627 15.51762253 29.52015607 13.99609375 27.046875 C8.68513575 18.32166745 4.00134295 9.40400011 0 0 Z "
    fill="#15642A" transform="translate(247,561)" />
  <path
    d="M0 0 C0.73273132 0.00027191 1.46546265 0.00054382 2.22039795 0.00082397 C22.22834568 0.03463123 42.37905184 0.63196083 61.9375 5.1875 C61.9375 5.5175 61.9375 5.8475 61.9375 6.1875 C60.86193848 6.36289307 59.78637695 6.53828613 58.67822266 6.71899414 C37.44973367 10.20354392 16.53465496 13.85213407 -4.0625 20.1875 C-4.95275879 20.45498047 -5.84301758 20.72246094 -6.76025391 20.99804688 C-50.41032023 34.23465642 -92.92607457 56.79744777 -126.55078125 87.88671875 C-128.6046246 89.76807759 -130.68754043 91.59233031 -132.796875 93.41015625 C-137.3774787 97.40889226 -141.70381799 101.63673979 -146 105.9375 C-146.79341797 106.73172363 -147.58683594 107.52594727 -148.40429688 108.34423828 C-153.25912553 113.25001267 -157.83053318 118.19778142 -162.07421875 123.64453125 C-164.25226019 126.43019919 -166.55980444 129.07749867 -168.875 131.75 C-175.29849926 139.40762038 -180.651837 147.79831044 -186.0625 156.1875 C-191.02352371 155.61914971 -194.64680301 153.34203766 -198.875 150.875 C-207.52697286 145.92630944 -216.38396963 141.46877974 -225.3527832 137.1237793 C-226.83524536 136.39735229 -226.83524536 136.39735229 -228.34765625 135.65625 C-229.23332275 135.22763672 -230.11898926 134.79902344 -231.03149414 134.35742188 C-233.0625 133.1875 -233.0625 133.1875 -234.0625 131.1875 C-233.32495117 129.43847656 -233.32495117 129.43847656 -232.10546875 127.328125 C-231.65727783 126.54880615 -231.20908691 125.7694873 -230.74731445 124.96655273 C-230.25320068 124.13196533 -229.75908691 123.29737793 -229.25 122.4375 C-228.49819458 121.15564819 -228.49819458 121.15564819 -227.73120117 119.84790039 C-223.24729269 112.30604393 -218.36538198 105.1720006 -213.0625 98.1875 C-212.39734375 97.30964844 -211.7321875 96.43179688 -211.046875 95.52734375 C-205.75670585 88.74259429 -199.96090343 82.44154246 -194.0625 76.1875 C-193.3715625 75.45402344 -192.680625 74.72054687 -191.96875 73.96484375 C-186.72024854 68.5550154 -180.94412198 63.88780611 -175.0625 59.1875 C-174.30582031 58.55199219 -173.54914062 57.91648437 -172.76953125 57.26171875 C-125.17539798 17.69551158 -61.06081371 -0.08580096 0 0 Z "
    fill="#15642A" transform="translate(723.0625,379.8125)" />
  <path
    d="M0 0 C1.13373047 0.00902344 2.26746094 0.01804687 3.43554688 0.02734375 C6.18643461 0.05055799 8.93684289 0.08320159 11.6875 0.125 C12.0175 1.115 12.3475 2.105 12.6875 3.125 C11.28564453 3.63546875 11.28564453 3.63546875 9.85546875 4.15625 C-21.21339213 15.56971059 -49.73582282 30.29820841 -76.3125 50.125 C-76.85567871 50.52928223 -77.39885742 50.93356445 -77.95849609 51.35009766 C-97.43149386 65.9158769 -116.80061052 82.17705822 -131.98046875 101.23828125 C-133.99666863 103.73404627 -136.07865668 106.15076889 -138.19702148 108.55957031 C-145.72183302 117.18626288 -152.00250628 126.59232949 -158.3125 136.125 C-159.12920166 137.34630615 -159.12920166 137.34630615 -159.96240234 138.59228516 C-168.33292634 151.11697708 -175.99344118 163.95987539 -183.3125 177.125 C-186.76921993 175.9122186 -188.98467546 174.77858581 -191.4375 172.0625 C-203.90195531 159.09200911 -219.71435801 148.5612527 -234.3125 138.125 C-230.47714411 131.76638365 -225.9454252 126.1827638 -221.06738281 120.61474609 C-218.79616761 118.0211306 -216.55222967 115.42699791 -214.40820312 112.72607422 C-208.48633466 105.26905842 -202.0260642 98.53100147 -195.27490234 91.82666016 C-193.44002731 90.00251253 -191.61610668 88.16790127 -189.79296875 86.33203125 C-182.95403196 79.48419546 -175.96751523 73.06873798 -168.3125 67.125 C-167.52407715 66.50286621 -166.7356543 65.88073242 -165.92333984 65.23974609 C-138.48637704 43.75755629 -108.08324858 26.99413217 -75.3125 15.125 C-74.50506348 14.83189941 -73.69762695 14.53879883 -72.86572266 14.23681641 C-62.42441403 10.52866725 -51.71252368 7.91286066 -40.9375 5.375 C-39.0654187 4.93377808 -39.0654187 4.93377808 -37.15551758 4.48364258 C-24.66582794 1.62168105 -12.83124768 -0.1984607 0 0 Z "
    fill="#15642A" transform="translate(789.3125,409.875)" />
  <path
    d="M0 0 C10.32012069 8.83267388 17.49005938 19.91018445 18.7421875 33.68359375 C19.05650719 45.61119872 16.22960108 56.80902732 8.50390625 66.0625 C7.56611328 67.20138672 7.56611328 67.20138672 6.609375 68.36328125 C-1.37866295 77.18124522 -12.59623065 82.97349423 -24.49609375 84.0625 C-25.28113281 84.14371094 -26.06617188 84.22492188 -26.875 84.30859375 C-39.19635733 84.96124992 -51.16497771 79.51324115 -60.62109375 71.9375 C-69.64136826 63.60003512 -74.74192244 52.41837533 -75.83984375 40.25390625 C-76.19497572 25.560321 -71.80291948 13.98176425 -61.796875 3.203125 C-44.60342133 -12.79350082 -18.77120377 -14.57044925 0 0 Z "
    fill="#F0B03E" transform="translate(654.49609375,227.9375)" />
  <path
    d="M0 0 C47.01087505 0.92840148 102.80094664 29.2980251 138.47265625 58.74462891 C139.90608269 59.92280645 141.35870021 61.07752475 142.8125 62.23046875 C150.57621684 68.42564396 157.78429467 75.18458198 165 82 C161.75940891 83.04234981 159.52187866 82.92892365 156.203125 82.25 C155.25703369 82.05768799 154.31094238 81.86537598 153.33618164 81.66723633 C151.80852173 81.33695435 151.80852173 81.33695435 150.25 81 C149.18450928 80.77143311 148.11901855 80.54286621 147.02124023 80.30737305 C109.87240729 72.1088028 74.51417899 57.40444237 43 36 C42.35643555 35.5659082 41.71287109 35.13181641 41.04980469 34.68457031 C32.210503 28.67938416 24.04319208 22.02561462 16 15 C15.23816406 14.33871094 14.47632813 13.67742188 13.69140625 12.99609375 C12.409311 11.87894643 11.130349 10.75818653 9.85546875 9.6328125 C8.49048587 8.43162757 7.11677887 7.2403383 5.73828125 6.0546875 C4.99964844 5.41789063 4.26101563 4.78109375 3.5 4.125 C2.8296875 3.55007813 2.159375 2.97515625 1.46875 2.3828125 C0.9840625 1.92648437 0.499375 1.47015625 0 1 C0 0.67 0 0.34 0 0 Z "
    fill="#156329" transform="translate(305,641)" />
  <path
    d="M0 0 C3.38770262 1.60844704 5.47977709 3.05958252 7.25 6.375 C7.56453125 6.93960938 7.8790625 7.50421875 8.203125 8.0859375 C11.29446702 15.5112198 11.36870565 25.99497592 8.8125 33.5625 C6.48313251 37.98026594 4.07146711 40.79164418 -0.25 43.3125 C-5.60471871 44.65117968 -10.77350925 44.96241364 -15.8125 42.4375 C-20.11396895 39.6230818 -22.31634062 35.67994478 -23.5859375 30.703125 C-25.00315546 21.45109834 -25.2157732 12.03740359 -19.734375 4.1875 C-14.49241356 -1.53100339 -7.24292614 -1.10441782 0 0 Z "
    fill="#FCFDFC" transform="translate(522,850)" />
  <path
    d="M0 0 C4.27580239 1.75613312 6.22936695 3.90187949 8.375 7.875 C11.2513713 15.15619096 11.23124028 24.03100821 8.9375 31.5 C6.9211324 35.77212131 4.32655576 38.98044927 0 41 C-5.94992163 41.96325008 -11.09880714 41.85225887 -16.625 39.375 C-22.1589523 33.8410477 -23.1563453 27.77830034 -23.3125 20.25 C-23.26276168 14.26896676 -22.7395145 9.77359247 -19 5 C-13.00224546 -0.5693435 -7.98040363 -0.71029771 0 0 Z "
    fill="#FCFDFC" transform="translate(382,850)" />
  <path
    d="M0 0 C2.88030138 2.88030138 3.61178181 6.41944885 4.8203125 10.21875 C5.21559647 11.43927063 5.21559647 11.43927063 5.61886597 12.68444824 C6.17474685 14.40507416 6.72765982 16.12666133 7.27783203 17.84912109 C8.12229805 20.49154531 8.97637125 23.13071322 9.83203125 25.76953125 C10.37036088 27.43992083 10.90814004 29.11048793 11.4453125 30.78125 C11.70152374 31.57398315 11.95773499 32.36671631 12.22171021 33.18347168 C14 38.76767698 14 38.76767698 14 41 C5.09 41 -3.82 41 -13 41 C-11.6986313 35.14384083 -10.37203585 29.72173037 -8.3984375 24.12109375 C-8.0364476 23.07478539 -8.0364476 23.07478539 -7.66714478 22.00733948 C-6.90774274 19.81574587 -6.14151619 17.62661418 -5.375 15.4375 C-4.85370978 13.93700761 -4.33287262 12.43635774 -3.8125 10.93554688 C-2.54688478 7.28852729 -1.27515038 3.64369607 0 0 Z "
    fill="#FBFDFC" transform="translate(285,829)" />
  <path
    d="M0 0 C2.4375 1.625 2.4375 1.625 4 4 C4.10061029 8.62807324 2.44270261 11.19668008 -0.625 14.578125 C-2.72411394 16.74879964 -4.84001391 18.8891045 -7 21 C-7.74121094 21.75152344 -8.48242188 22.50304687 -9.24609375 23.27734375 C-10.05175781 24.09332031 -10.85742188 24.90929687 -11.6875 25.75 C-12.45449219 26.52859375 -13.22148438 27.3071875 -14.01171875 28.109375 C-16.71378082 30.67872283 -17.64388613 30.96762601 -21.4375 31.3125 C-25 31 -25 31 -27 29.4375 C-28.42617801 25.96119111 -28.38798819 23.42917082 -27 20 C-24.15953532 16.38915656 -20.89136729 13.28247528 -17.5625 10.125 C-16.67755859 9.25875 -15.79261719 8.3925 -14.88085938 7.5 C-6.49504481 -0.64950448 -6.49504481 -0.64950448 0 0 Z "
    fill="#F0AF3E" transform="translate(583,303)" />
  <path
    d="M0 0 C2.61474609 1.85424805 2.61474609 1.85424805 5.0234375 4.26171875 C5.89871094 5.13376953 6.77398438 6.00582031 7.67578125 6.90429688 C8.56652344 7.82275391 9.45726562 8.74121094 10.375 9.6875 C11.28894531 10.58662109 12.20289063 11.48574219 13.14453125 12.41210938 C20.79028911 20.15443327 20.79028911 20.15443327 21 26 C18.7964102 28.98132738 17.37023253 30.76554365 13.63574219 31.40454102 C8.46982644 30.61166195 5.23836137 26.00808426 1.70556641 22.41235352 C0.25940967 20.94703435 -1.21355073 19.5133368 -2.69140625 18.08007812 C-3.61308594 17.15517578 -4.53476562 16.23027344 -5.484375 15.27734375 C-6.32709961 14.43421631 -7.16982422 13.59108887 -8.03808594 12.72241211 C-10.42838199 9.40556401 -10.84880384 7.05521184 -11 3 C-8.05545176 -1.90758039 -5.17112145 -1.21598324 0 0 Z "
    fill="#F0AE39" transform="translate(566,195)" />
  <path
    d="M0 0 C2 3 2 3 1.89135742 6.37353516 C0.88199 10.48012067 -0.30034694 12.06056414 -3.26171875 15.0234375 C-4.13376953 15.89871094 -5.00582031 16.77398437 -5.90429688 17.67578125 C-6.82275391 18.56652344 -7.74121094 19.45726562 -8.6875 20.375 C-9.58662109 21.28894531 -10.48574219 22.20289063 -11.41210938 23.14453125 C-18.98684549 30.62479156 -18.98684549 30.62479156 -25 31 C-27.375 30.0625 -27.375 30.0625 -29 28 C-29.68955222 24.6646659 -29.90958919 23.19411579 -29 20 C-26.11993103 16.08905342 -22.66726154 12.8703827 -19.125 9.5625 C-18.18785156 8.65306641 -17.25070312 7.74363281 -16.28515625 6.80664062 C-7.54164394 -1.61606656 -7.54164394 -1.61606656 0 0 Z "
    fill="#F0AE39" transform="translate(695,195)" />
  <path
    d="M0 0 C3.01562729 1.96222323 5.44477852 4.48175118 8 7 C9.1210426 8.03922211 10.24354718 9.07686844 11.3671875 10.11328125 C12.55879477 11.2406008 13.74889356 12.36951692 14.9375 13.5 C15.51765869 14.03326904 16.09781738 14.56653809 16.69555664 15.1159668 C20.5202525 18.84412245 21.89970244 21.44351502 22 27 C21 29.4375 21 29.4375 19 31 C14.90566565 31.45897073 12.74858606 31.49952729 9.27758789 29.18334961 C8.01289673 27.93050171 8.01289673 27.93050171 6.72265625 26.65234375 C5.79775391 25.73646484 4.87285156 24.82058594 3.91992188 23.87695312 C3.45126709 23.39363525 2.9826123 22.91031738 2.49975586 22.41235352 C1.06571518 20.94079929 -0.40189694 19.51038348 -1.87695312 18.08007812 C-2.79283203 17.15517578 -3.70871094 16.23027344 -4.65234375 15.27734375 C-5.48757568 14.43421631 -6.32280762 13.59108887 -7.18334961 12.72241211 C-9.49585589 9.25691587 -9.42483351 7.08792326 -9 3 C-6.82969974 -0.73773934 -4.02791985 -0.75998488 0 0 Z "
    fill="#F0AD39" transform="translate(675,303)" />
  <path
    d="M0 0 C1.04481285 -0.00430527 1.04481285 -0.00430527 2.11073303 -0.00869751 C3.58253798 -0.01073701 5.0543701 -0.00521502 6.52612305 0.00732422 C8.77389506 0.02335718 11.01986259 0.00748618 13.26757812 -0.01171875 C14.69922271 -0.00973582 16.13086617 -0.00589111 17.5625 0 C18.8630835 0.00338379 20.16366699 0.00676758 21.50366211 0.01025391 C25.00381027 0.41656445 26.46710047 0.83339697 28.84765625 3.3984375 C29.57748551 9.23707158 29.57748551 9.23707158 27.78320312 12.09228516 C24.84546076 14.07474248 21.86535655 13.82670914 18.44140625 13.796875 C17.72029663 13.79974518 16.99918701 13.80261536 16.25622559 13.80557251 C14.7331463 13.80761202 13.21004075 13.80208997 11.68701172 13.78955078 C9.35584947 13.77349393 7.02642083 13.7894016 4.6953125 13.80859375 C3.21483992 13.8066113 1.73436843 13.80276757 0.25390625 13.796875 C-0.44303345 13.80294769 -1.13997314 13.80902039 -1.85803223 13.8152771 C-4.70796447 13.77386444 -6.69185259 13.70856183 -9.09179688 12.09228516 C-10.89406782 9.21379626 -10.50418066 6.68224865 -10.15234375 3.3984375 C-7.65848737 -0.52589354 -4.32489956 0.01126206 0 0 Z "
    fill="#F0AC37" transform="translate(694.15234375,256.6015625)" />
  <path
    d="M0 0 C0.67293091 -0.00619858 1.34586182 -0.01239716 2.03918457 -0.01878357 C3.45791176 -0.02586816 4.87672232 -0.02273126 6.29541016 -0.01000977 C8.46282166 0.00386829 10.62592117 -0.03023311 12.79296875 -0.06835938 C14.17448022 -0.06931058 15.55599708 -0.06745166 16.9375 -0.0625 C18.81598633 -0.06358765 18.81598633 -0.06358765 20.73242188 -0.06469727 C23.96875 0.56640625 23.96875 0.56640625 26.41210938 2.94165039 C27.96875 5.56640625 27.96875 5.56640625 27.90625 8.19140625 C26.85832414 10.84615176 26.261947 11.88002997 23.96875 13.56640625 C20.84594727 13.97045898 20.84594727 13.97045898 17.03515625 14 C16.36081039 14.00524185 15.68646454 14.0104837 14.99168396 14.0158844 C13.56697973 14.02230064 12.14222249 14.02097264 10.7175293 14.01245117 C8.54184178 14.00394765 6.36878697 14.03268967 4.19335938 14.06445312 C2.80729245 14.06606552 1.42122089 14.06548687 0.03515625 14.0625 C-1.8528772 14.06527954 -1.8528772 14.06527954 -3.77905273 14.06811523 C-7.57772355 13.48210303 -8.75703453 12.60696003 -11.03125 9.56640625 C-11.53125 7.06640625 -11.53125 7.06640625 -11.03125 4.56640625 C-7.80381303 0.26629199 -5.23436626 0.04546059 0 0 Z "
    fill="#F0AD39" transform="translate(540.03125,256.43359375)" />
  <path
    d="M0 0 C1.69165039 1.10375977 1.69165039 1.10375977 3 3 C3.40405273 6.03100586 3.40405273 6.03100586 3.43359375 9.71484375 C3.4388356 10.36699356 3.44407745 11.01914337 3.44947815 11.6910553 C3.45589347 13.06868061 3.45456757 14.44636073 3.44604492 15.82397461 C3.43754137 17.92726701 3.46628361 20.02783583 3.49804688 22.13085938 C3.49965929 23.47135336 3.49908059 24.81185213 3.49609375 26.15234375 C3.49794678 27.36913818 3.4997998 28.58593262 3.50170898 29.83959961 C3 33 3 33 1.19555664 35.43188477 C-1 37 -1 37 -4.625 36.9375 C-8 36 -8 36 -10 33 C-10.38625984 28.71509088 -10.32918691 24.42125648 -10.31567383 20.12109375 C-10.31251091 18.0072895 -10.33599013 15.89488154 -10.36132812 13.78125 C-10.36360095 12.43750176 -10.36430469 11.09374977 -10.36328125 9.75 C-10.36626221 8.52796875 -10.36924316 7.3059375 -10.37231445 6.046875 C-10 3 -10 3 -8.69604492 1.1015625 C-5.8290113 -0.76054426 -3.30159675 -0.35374251 0 0 Z "
    fill="#EFAC37" transform="translate(629,170)" />
  <path
    d="M0 0 C3.79023157 0.61881332 4.7336888 1.48958552 7.0625 4.5 C7.58007812 7.55273438 7.58007812 7.55273438 7.59375 11.09375 C7.59890625 12.37121094 7.6040625 13.64867187 7.609375 14.96484375 C7.60099609 15.62726074 7.59261719 16.28967773 7.58398438 16.97216797 C7.5625595 18.99438448 7.58379739 21.01304961 7.609375 23.03515625 C7.60421875 24.31261719 7.5990625 25.59007812 7.59375 26.90625 C7.58923828 28.07478516 7.58472656 29.24332031 7.58007812 30.44726562 C6.9586304 34.11263466 6.05306424 35.340296 3.0625 37.5 C-0.5625 37.4375 -0.5625 37.4375 -3.9375 36.5 C-7.09628475 31.76182288 -6.2713664 26.67761153 -6.25317383 21.10327148 C-6.25001611 19.07285778 -6.27347175 17.04390524 -6.29882812 15.01367188 C-6.29947266 13.73169922 -6.30011719 12.44972656 -6.30078125 11.12890625 C-6.30376221 9.95400635 -6.30674316 8.77910645 -6.30981445 7.56860352 C-5.75878722 3.0270551 -4.61879708 0.78617823 0 0 Z "
    fill="#EFAC37" transform="translate(624.9375,322.5)" />



</svg>